<svg width="10" height="10" viewBox="0 0 10 10" fill="none" xmlns="http://www.w3.org/2000/svg">
<path d="M6.41 5.00409L9.71 1.71409C9.80324 1.62085 9.8772 1.51016 9.92766 1.38834C9.97812 1.26652 10.0041 1.13595 10.0041 1.00409C10.0041 0.872233 9.97812 0.741665 9.92766 0.619843C9.8772 0.498021 9.80324 0.38733 9.71 0.294092C9.61676 0.200853 9.50607 0.126893 9.38425 0.0764322C9.26243 0.0259719 9.13186 0 9 0C8.86814 0 8.73757 0.0259719 8.61575 0.0764322C8.49393 0.126893 8.38324 0.200853 8.29 0.294092L4.29 4.29409C4.19627 4.38705 4.12188 4.49766 4.07111 4.61951C4.02034 4.74137 3.9942 4.87208 3.9942 5.00409C3.9942 5.1361 4.02034 5.26681 4.07111 5.38867C4.12188 5.51053 4.19627 5.62113 4.29 5.71409L8.29 9.71409C8.38296 9.80782 8.49356 9.88221 8.61542 9.93298C8.73728 9.98375 8.86799 10.0099 9 10.0099C9.13201 10.0099 9.26272 9.98375 9.38458 9.93298C9.50644 9.88221 9.61704 9.80782 9.71 9.71409C9.80373 9.62113 9.87812 9.51053 9.92889 9.38867C9.97966 9.26681 10.0058 9.1361 10.0058 9.00409C10.0058 8.87208 9.97966 8.74137 9.92889 8.61951C9.87812 8.49765 9.80373 8.38706 9.71 8.29409L6.41 5.00409ZM1 0.00409174C0.734784 0.00409174 0.48043 0.109449 0.292893 0.296985C0.105357 0.484522 0 0.738875 0 1.00409V9.00409C0 9.26931 0.105357 9.52366 0.292893 9.7112C0.48043 9.89874 0.734784 10.0041 1 10.0041C1.26522 10.0041 1.51957 9.89874 1.70711 9.7112C1.89464 9.52366 2 9.26931 2 9.00409V1.00409C2 0.738875 1.89464 0.484522 1.70711 0.296985C1.51957 0.109449 1.26522 0.00409174 1 0.00409174Z" fill="white"/>
</svg>
