<svg width="40" height="40" viewBox="0 0 40 40" fill="none" xmlns="http://www.w3.org/2000/svg">
<path d="M11 20C11 15.0294 15.0294 11 20 11C24.9706 11 29 15.0294 29 20V26.4286C29 26.7271 29 26.8764 28.9859 27.002C28.8684 28.0451 28.0451 28.8684 27.002 28.9859C26.8764 29 26.7271 29 26.4286 29H20C15.0294 29 11 24.9706 11 20Z" stroke="white"/>
<path d="M17.375 22.5625C17.5131 22.5625 17.625 22.6744 17.625 22.8125C17.625 22.9506 17.5131 23.0625 17.375 23.0625C17.2369 23.0625 17.125 22.9506 17.125 22.8125C17.125 22.6744 17.2369 22.5625 17.375 22.5625Z" fill="black" stroke="white"/>
<path d="M20.414 17.4928C20.5516 17.2143 20.9488 17.2143 21.0864 17.4928L21.2725 17.8694C21.5883 18.5086 22.0458 19.0673 22.6101 19.503L22.9908 19.7969C23.1852 19.947 23.1852 20.2404 22.9908 20.3905L22.6101 20.6844C22.0458 21.1201 21.5883 21.6788 21.2725 22.318L21.0864 22.6946C20.9488 22.9731 20.5516 22.9731 20.414 22.6946L20.2279 22.318C19.912 21.6788 19.4545 21.1201 18.8902 20.6844L18.5096 20.3905C18.3152 20.2404 18.3152 19.947 18.5096 19.7969L18.8902 19.503C19.4545 19.0673 19.912 18.5086 20.2279 17.8694L20.414 17.4928Z" stroke="white" stroke-linejoin="round"/>
</svg>
