<svg width="40" height="40" viewBox="0 0 40 40" fill="none" xmlns="http://www.w3.org/2000/svg">
<path d="M20 9.25073C20.7285 9.25073 21.4361 9.49586 22.0088 9.94604L28.9307 15.3835H28.9316C29.4984 15.8281 29.9565 16.396 30.2715 17.0437C30.5865 17.6914 30.7502 18.4026 30.75 19.1228V25.9998C30.75 27.2595 30.2492 28.4683 29.3584 29.3591C28.4676 30.2497 27.2596 30.7498 26 30.7498H23.75C23.6837 30.7498 23.6201 30.7234 23.5732 30.6765C23.5265 30.6296 23.5 30.566 23.5 30.4998V25.2498C23.4999 24.3216 23.1309 23.4315 22.4746 22.7751C21.8593 22.16 21.0387 21.7976 20.1738 21.7546L20 21.7498C19.0718 21.7498 18.1818 22.1189 17.5254 22.7751C16.8691 23.4315 16.5001 24.3216 16.5 25.2498V30.4998C16.5 30.566 16.4735 30.6296 16.4268 30.6765C16.3799 30.7234 16.3163 30.7498 16.25 30.7498H14C12.7404 30.7498 11.5324 30.2497 10.6416 29.3591C9.7508 28.4683 9.25 27.2595 9.25 25.9998V19.1228C9.24979 18.4026 9.41352 17.6914 9.72852 17.0437C10.0435 16.396 10.5016 15.8281 11.0684 15.3835H11.0693L17.9912 9.94604C18.5639 9.49586 19.2715 9.25073 20 9.25073Z" stroke="white"/>
</svg>
