<svg width="40" height="40" viewBox="0 0 40 40" fill="none" xmlns="http://www.w3.org/2000/svg">
<path d="M17.8887 24.0479C19.3015 23.934 20.7209 23.934 22.1338 24.0479L22.1445 24.0488C22.9063 24.0932 23.6653 24.1884 24.415 24.334V24.333C25.9557 24.6455 26.827 25.1172 27.2217 25.7305L27.2939 25.8555C27.5684 26.4042 27.5684 27.0567 27.2939 27.6055C26.9368 28.2857 26.0877 28.831 24.4062 29.125L24.3936 29.127C23.6457 29.2778 22.8888 29.3763 22.1279 29.4209L22.1152 29.4219L22.1016 29.4229C21.4068 29.4994 20.7075 29.5 19.9678 29.5H18.668C18.393 29.4662 18.1241 29.4472 17.8613 29.4463C17.1028 29.4071 16.3479 29.3131 15.6025 29.1631L15.5986 29.1621L15.2998 29.1006C13.9495 28.8026 13.1628 28.3423 12.793 27.7666L12.7197 27.6416C12.5769 27.3686 12.5013 27.0626 12.5 26.751V26.748L12.5117 26.5146C12.5378 26.2832 12.6063 26.0586 12.7129 25.8525V25.8516C13.06 25.1784 13.9439 24.6397 15.5947 24.335L15.6006 24.334C16.352 24.1865 17.1122 24.0911 17.876 24.0488L17.8887 24.0479ZM20.0029 10.5C22.6138 10.5002 24.7539 12.6808 24.7539 15.4004C24.7539 18.1199 22.6138 20.3006 20.0029 20.3008C17.392 20.3008 15.251 18.12 15.251 15.4004C15.251 12.6807 17.392 10.5 20.0029 10.5Z" stroke="white"/>
</svg>
