<svg width="40" height="40" viewBox="0 0 40 40" fill="none" xmlns="http://www.w3.org/2000/svg">
<path d="M10.5483 24.9292C10.5923 24.9776 10.6378 25.0246 10.6841 25.0708L14.9282 29.3149V29.3159C14.9735 29.3613 15.0206 29.4047 15.0679 29.4478C14.7967 29.6098 14.4857 29.6997 14.1646 29.6997C13.759 29.6996 13.3677 29.5602 13.0552 29.3071L12.9263 29.1919L10.8062 27.0718C10.4784 26.7437 10.2944 26.2982 10.2944 25.8345C10.2945 25.5125 10.3843 25.2002 10.5483 24.9292ZM22.0679 11.939C22.5318 11.939 22.977 12.1236 23.3052 12.4517L27.5493 16.6948C27.8773 17.023 28.061 17.4681 28.061 17.9321C28.061 18.3382 27.9207 18.7301 27.6655 19.0415L27.5493 19.1694L27.0718 19.646C26.9093 19.8085 26.7158 19.9379 26.5034 20.0259C26.2911 20.1138 26.0633 20.1587 25.8335 20.1587C25.6039 20.1586 25.3767 20.1137 25.1646 20.0259C24.9522 19.9379 24.7587 19.8085 24.5962 19.646L23.0044 18.0562L22.6509 17.7026L18.0552 22.2983L17.7026 22.6519L18.0552 23.0054L19.646 24.5972C19.9741 24.9253 20.1587 25.3704 20.1587 25.8345C20.1586 26.2981 19.9746 26.7428 19.647 27.0708L19.1685 27.5483C18.8403 27.8763 18.3951 28.061 17.9312 28.061C17.4672 28.061 17.022 27.8763 16.6938 27.5483L12.4507 23.3052C12.1226 22.977 11.938 22.5318 11.938 22.0679C11.938 21.6618 12.0793 21.2699 12.3345 20.9585L12.4507 20.8306L12.9282 20.354V20.353C13.0907 20.1905 13.2843 20.0621 13.4966 19.9741C13.7089 19.8862 13.9367 19.8403 14.1665 19.8403C14.3961 19.8404 14.6233 19.8863 14.8354 19.9741C15.0477 20.0621 15.2413 20.1906 15.4038 20.353V20.354L16.9956 21.9438L17.3491 22.2974L17.7026 21.9438L21.9438 17.7017L22.2974 17.3481L21.9448 16.9946L20.354 15.4028C20.0259 15.0747 19.8413 14.6296 19.8413 14.1655C19.8414 13.7016 20.026 13.2564 20.354 12.9282L20.353 12.9272L20.8306 12.4517C21.1587 12.1236 21.6038 11.939 22.0679 11.939ZM25.8345 10.2944C26.2401 10.2944 26.6316 10.4353 26.9429 10.6899L27.0718 10.8062L29.1938 12.9282C29.5214 13.2562 29.7055 13.701 29.7056 14.1646C29.7056 14.4868 29.6139 14.7987 29.4497 15.0698C29.406 15.0218 29.361 14.9741 29.3149 14.9282L25.0708 10.6841H25.0718C25.0254 10.6376 24.9777 10.5925 24.9292 10.5483C25.2002 10.3843 25.5125 10.2945 25.8345 10.2944Z" stroke="white"/>
</svg>
